<?xml version="1.0" encoding="UTF-8"?>
<svg id="ZOOM101112925_xA0_图像" xmlns="http://www.w3.org/2000/svg" version="1.1" viewBox="0 0 150.24 241.44">
  <!-- Generator: Adobe Illustrator 30.0.0, SVG Export Plug-In . SVG Version: 2.1.1 Build 123)  -->
  <path d="M61.78,104.11c.25.3.93.56,1.28.88,3.31,3.15,7.32,5.58,10.63,8.66.33.31.64.64.95.97.23,1-2.69.38-3.17.29-2.79-.51-9.4-3.59-11.76-5.25-4.35-3.06-5.18-8.53-11.99-7.36-3.18.55-5.34,2.33-4.88,5.78.6,4.41,5.78,7.22,8.81,10.36,4.38,4.55,8.5,8.54,6.74,15.38-1.89,7.32-9.26,9.36-10.55,19.17-.19,1.45-.5,5.12-.26,6.43.31,1.64,4.06,4.31,5.52,5.02,2.45,1.18,4.85,1.22,7.54.88.44-.05.3-.45.51-.49,1.05-.25,1.57.36,1.75-1.32.43-3.85-.49-8.51.1-12.36s4.41-11.55,6.07-15.5c.25-.6.29-2.36,1.13-1.98.33.15.43.84.49,1.18,2.32,11.93-5.47,21.49.74,32.81.63,1.15,2.55,4.12,3.44,4.95.26.24.38.44.8.33.22-.06,2.69-3.03,3.03-3.46,1.96-2.45,5.36-6.87,5.94-9.88.93-4.88-.16-15.68-2.13-20.28-.44-1.02-3.63-6.54-3.08-7.1.72.11,1.84-.18,2.48.04.28.09,3.24,3.74,3.62,4.29,2.61,3.82,6.27,12.81,6.12,17.36l-.72,7.19c.08.85,3.59,2.42,4.42,2.28.3-.05,2.51-2.01,2.89-2.39,3.57-3.5,5.78-6.93,5.01-12.22l-10.06-15.09c-.64-1.61,2.23-10.57,1.71-11.29-.36-.49-7.25.41-8.64.26-7.58-.86-10.83-11.93-7.4-17.96l9.65-11.12c-.96-1.16-1.62-2.53-2.5-3.74-2.82-3.9-6.15-7.51-8.92-11.44-.31-.44-2.21-3.19-1.96-3.43,1.33.04,3.07.04,4.24.67s1.97,2.15,2.94,3.05c9.58,8.78,19.11,11.68,31.97,12.35.94.05,5.79-.21,6.12.23.09.47-.22.58-.55.77-2.71,1.57-7.48,1.84-10.11,4.27-2.4,2.22-.35,6.76.79,9.27,2.73,6,8.78,9.4,13.33,13.99.52.52,1.53.82,1.57,1.67-.26.24-4.14-1.57-4.72-1.85-.32-.16-.32-.48-.6-.61-2.15-1.03-8.22-3.15-9.64-4.49-1.24-1.16-3.64-5.66-4.4-7.34-1.76-3.94-1.95-7.98-6.08-10.45-.94-.56-3.26-1.69-4.13-.91-.79.71-1.97,3.02-2.87,4.08-3.35,3.94-9.39,6.55-8.71,12.78l.5.45c2.7.96,5.39,1.98,8.08,2.94,4.23,1.51,7.22,2.44,11.18,4.63,4.7,2.6,9.21,5.7,13.01,9.51.23.57-.76.36-1.02.3-4.53-1.1-9.72-3.43-14.26-4.91-.75-.24-5.28-1.78-5.56-1.51l1.62,7.85c6.81,7.73,15.4,15.04,11.62,26.61-.27.83-.8,2.31-1.39,2.93-.71.75-7.57,5.86-8.41,6.21-5.3,2.18-16.87,1.67-18.85,8.22-.97,3.2.09,4.18,2.34,6.19,6.02,5.38,14.06,9.14,21.64,11.9,1.66.6,3.96.59,5.07,1.99-.53.71-10.03-.31-11.55-.55-7.85-1.2-12.29-3.4-18.15-8.44-4.96-4.27-10.1-8.35-15.01-12.66-1-.88-2.07-2.62-3.55-2.8-3.67-.44-6.94.64-10.7-.79-8.05-3.06-10.69-12.27-10.51-20.18.02-.88.14-3.3.3-4.01.21-.94,5.85-5.86,7.02-7.12,2.6-2.81,5.12-5.84,6.23-9.59.27-.9.94-4.14.84-4.9-.04-.33-.22-.56-.5-.72l-8.91-4.68-.56-.69c-6.46-2.9-8.76-5.54-8.25-12.87.17-2.5.21-3.07,2.19-4.52,2.35-1.72,6.92-3.96,9.74-4.64,5.99-1.43,9.99-.74,12.8-7.56.29-.71.85-1.97.05-2.54-1.01-.73-6.05-2.05-7.41-2.17-4.21-.38-6.5.84-10.18-2.28-3.41-2.89-6.62-10.21-6.23-14.63.29-3.3,3.78-5.3,6-7.42,4.62-4.41,8.71-7.5,10.42-14.02.47-1.81.57-3.67.84-5.51.54-.09.65.34.84.72,1.66,3.24,2.2,7.77,3.7,11.15,4.42,2.97,9.47,4.5,11.79,9.77,1.97,4.48,1.05,11.57-.89,15.98-1.33,3.02-5.41,6.13-4.31,9.84.29.97,1.67,1.89,1.94,3.09.74,3.2-1.04,6.21-3.8,7.73-.7.39-1.84.52-2.3,1.06-.75.9-.73,3.42.05,4.33ZM61.39,77.74c.13-.08.24-.44.47-.6,1.48-1.01,3.28-1.98,3.92-3.78-.19-5.94-1.32-11.57-7.43-13.87-1.58-.59-5.62-1.48-7.17-.95-1,.34-3.84,4.26-5.04,5.03-2.02,3.1-2.43,7.73-1.15,11.2.47,1.26,1.44,3.52,2.6,4.11,3.75,1.89,10.27,1.05,13.79-1.14Z"/>
  <path d="M89.58,50.41c.96,1.07,1.99,2.1,3.19,2.92l20.4,10.14-.07.95c-.25.36-5.6.26-6.49.23-5.99-.21-12.63-2.19-17.21-6.26l-12.11-17.83c.45-.67,1.25-.15,1.83.08,5.35,2.18,6.98,5.87,10.47,9.78Z"/>
  <path d="M114.64,76.14c-1.58.52-3.23.81-4.84,1.22-2.66.68-5.44,1.32-8.45,1.41-3.31.1-8.18-.21-10.88-2.05-5.9-4.03-7.01-7.76-9.87-13.85l-1.65-3.5c.63-.07,1.1.38,1.55.72,3.62,2.79,6.71,6.64,10.45,9.44,5.47,4.1,12.8,5.4,19.5,5.89.36.03,4.99-.3,4.19.72Z"/>
  <path d="M55.88,63.77c.06.02.08.28.27.36,2.27,1.02,2.91,1.51,3.15,4.23.08.91.25,3.64-.49,4.06-.62.36-5.33.97-5.99.74-.94-.32-2.18-3.73-2.16-4.81.02-.84,1.3-4.33,1.85-4.69.7-.45,2.57-.15,3.36.11Z"/>
</svg>